<?xml version="1.0" standalone="no"?>
<!DOCTYPE svg PUBLIC "-//W3C//DTD SVG 20010904//EN"
 "http://www.w3.org/TR/2001/REC-SVG-20010904/DTD/svg10.dtd">
<svg version="1.0" xmlns="http://www.w3.org/2000/svg"
 width="1080.000000pt" height="1080.000000pt" viewBox="0 0 1080.000000 1080.000000"
 preserveAspectRatio="xMidYMid meet">

<g transform="translate(0.000000,1080.000000) scale(0.100000,-0.100000)"
fill="#000000" stroke="none">
<path d="M0 5400 l0 -5400 5400 0 5400 0 0 5400 0 5400 -5400 0 -5400 0 0
-5400z m3119 731 c17 -11 24 2 -133 -214 -71 -98 -137 -182 -147 -187 -10 -6
-103 -10 -207 -10 -164 0 -191 -2 -196 -16 -8 -20 -8 -208 0 -228 5 -13 24
-16 100 -16 77 0 97 -3 112 -18 46 -46 273 -374 268 -387 -4 -13 -43 -15 -240
-15 l-236 0 -5 -22 c-3 -13 -6 -75 -8 -138 l-2 -115 -242 -3 -243 -2 0 684 c0
538 3 685 13 689 22 9 1151 7 1166 -2z m561 -7 c0 -3 -104 -150 -231 -327
-128 -176 -234 -329 -236 -338 -5 -18 17 -50 302 -439 91 -123 165 -230 165
-236 0 -18 -76 -24 -286 -24 -191 0 -193 0 -222 25 -17 14 -90 109 -164 213
-74 103 -176 244 -226 314 -51 70 -92 133 -92 140 0 7 17 36 38 63 20 28 73
100 117 160 44 61 137 188 207 283 l128 172 250 0 c137 0 250 -3 250 -6z
m1318 -701 l2 -663 -115 0 -115 0 0 665 0 666 113 -3 112 -3 3 -662z m330 0
l2 -663 -115 0 -115 0 0 665 0 666 113 -3 112 -3 3 -662z m3522 542 l0 -125
-110 0 -110 0 0 125 0 125 110 0 110 0 0 -125z m-682 -72 l3 -143 185 0 185 0
-3 -117 -3 -118 -182 -3 -183 -2 0 -193 c0 -209 7 -251 46 -288 24 -23 33 -24
175 -27 l149 -3 0 -121 0 -120 -192 4 c-157 3 -201 7 -233 21 -79 35 -114 67
-148 136 l-32 66 -3 262 -4 263 -99 0 -99 0 0 120 0 120 100 0 100 0 0 138 c0
76 3 142 7 146 4 3 57 5 117 4 l111 -3 3 -142z m-3823 -148 c168 -44 268 -139
317 -300 26 -84 30 -250 9 -335 -58 -230 -239 -350 -531 -350 -183 0 -317 46
-411 139 -93 94 -129 196 -129 369 0 272 132 440 381 487 92 18 280 13 364
-10z m1760 10 c145 -27 251 -99 315 -211 35 -61 66 -179 73 -276 l5 -68 -424
0 c-479 0 -445 7 -401 -80 53 -104 205 -152 382 -119 77 14 123 38 168 88 l37
41 111 0 111 0 -7 -32 c-3 -18 -19 -60 -36 -94 -74 -155 -256 -244 -497 -244
-294 1 -484 146 -523 400 -13 85 -6 211 16 283 38 124 136 237 242 277 126 48
291 62 428 35z m1220 -8 c170 -47 269 -137 316 -288 32 -103 36 -99 -96 -99
l-115 0 -15 37 c-22 52 -48 77 -108 105 -46 20 -67 23 -182 23 -110 0 -137 -4
-176 -21 -97 -45 -145 -135 -137 -263 9 -167 107 -241 316 -241 150 0 247 43
284 126 l19 44 116 0 116 0 -7 -40 c-26 -165 -139 -289 -311 -343 -95 -30
-337 -32 -430 -3 -164 50 -255 134 -307 284 -19 57 -23 87 -23 197 0 110 4
140 23 197 57 166 179 262 380 298 65 12 277 4 337 -13z m1525 -497 l0 -490
-110 0 -110 0 0 490 0 490 110 0 110 0 0 -490z"/>
<path d="M4013 5520 c-128 -27 -183 -105 -183 -259 0 -77 4 -96 28 -142 23
-46 36 -58 86 -83 51 -26 72 -30 165 -34 250 -10 341 60 341 264 0 81 -3 98
-28 145 -23 45 -37 59 -84 83 -51 26 -69 29 -170 32 -62 2 -132 -1 -155 -6z"/>
<path d="M5845 5544 c-61 -15 -90 -29 -121 -57 -34 -29 -64 -75 -64 -97 0 -7
94 -10 290 -10 225 0 290 3 290 13 0 6 -10 30 -23 52 -16 29 -38 48 -81 70
-54 27 -69 30 -165 32 -58 1 -115 -1 -126 -3z"/>
</g>
</svg>
